<?xml version="1.0" encoding="UTF-8"?>
<svg id="Capa_1" xmlns="http://www.w3.org/2000/svg" version="1.1" viewBox="0 0 1920 1080">
  <!-- Generator: Adobe Illustrator 30.2.1, SVG Export Plug-In . SVG Version: 2.1.1 Build 1)  -->
  <defs>
    <style>
      .st0 {
        fill: #fff;
      }
    </style>
  </defs>
  <g>
    <path class="st0" d="M1001.66,591.82s-13.52,53.44-35.75,108.64l12.31.08,14.45-40.94s18.78-59.62,30.22-160.07l19.63,201.42,508.4,3.3c-51.49-293.82-295.62-516.38-589.04-516.38s-533.31,218.71-587.66,508.75l507.67,3.29c29.93-51.72,78.16-152.41,105.88-308.18l13.88,200.08Z"/>
    <path class="st0" d="M1496.31,729.63c-142.53-9.39-301.53-13.32-452.38-14.29l1.02,10.42s-51.04-3.76-82.08,18.29l10.22-28.96c-4.43,0-8.86,0-13.26,0-1.54,3.58-3.11,7.14-4.72,10.68l-99.29,15.35c1.4-2.41,7.64-10.91,16.83-25.71-249.88,1.67-443.77,9.55-443.77,9.55-458.84,21.91,1518.6,34.43,1067.43,4.69Z"/>
    <path class="st0" d="M564.13,778.16c-274.88,6.73,909.75,10.58,639.47,1.44-270.28-9.13-639.47-1.44-639.47-1.44Z"/>
    <path class="st0" d="M1520.03,777.32c-17.96-12.69-156.88-.98-161.67-.98,0,0,179.64,13.67,161.67.98Z"/>
  </g>
  <g>
    <g>
      <path class="st0" d="M416.81,891.25h-56.81v-1.54c.95,0,2.01-.14,3.19-.41,1.18-.28,2.31-.75,3.37-1.42,1.07-.67,1.95-1.58,2.66-2.72.71-1.14,1.07-2.58,1.07-4.32v-62.02c0-1.73-.36-3.18-1.07-4.32-.71-1.14-1.6-2.05-2.66-2.72-1.07-.67-2.19-1.14-3.37-1.42-1.18-.28-2.25-.41-3.19-.41v-1.54h31.01v1.54c-.95,0-2.01.14-3.2.41-1.18.28-2.31.75-3.37,1.42-1.07.67-1.95,1.58-2.66,2.72-.71,1.14-1.06,2.59-1.06,4.32v69.47h16.92c3.63,0,6.67-.53,9.11-1.6,2.45-1.07,4.48-2.41,6.09-4.02,1.62-1.62,2.94-3.41,3.97-5.39,1.02-1.97,1.89-3.86,2.6-5.68h1.42l-4.02,19.65Z"/>
      <path class="st0" d="M493.53,856.85c0-4.45.79-8.79,2.36-13.02,1.57-4.23,3.91-7.99,7.03-11.3,3.11-3.31,7.01-5.98,11.69-8.01,4.68-2.03,10.14-3.05,16.36-3.05,2.55,0,4.83.18,6.83.54,2,.36,3.78.74,5.35,1.13,1.57.39,2.91.77,4.03,1.13,1.11.36,2.03.54,2.75.54s1.23-.26,1.52-.79c.29-.52.41-1.05.34-1.57h1.18l5.11,22.5h-1.47c-1.44-2.95-3.18-5.68-5.21-8.21-2.03-2.52-4.31-4.72-6.83-6.58-2.52-1.87-5.21-3.34-8.06-4.42-2.85-1.08-5.81-1.62-8.89-1.62-3.8,0-7.34.74-10.61,2.21-3.28,1.47-6.09,3.46-8.45,5.94-2.36,2.49-4.21,5.42-5.55,8.79-1.34,3.38-2.01,6.99-2.01,10.86,0,4.52.87,9.01,2.6,13.46,1.74,4.46,4.11,8.48,7.13,12.09,3.01,3.6,6.5,6.52,10.47,8.74,3.96,2.23,8.14,3.34,12.53,3.34s7.89-.72,10.71-2.16c2.82-1.44,5.09-3.4,6.83-5.9,1.74-2.49,3.05-5.39,3.93-8.7.89-3.31,1.56-6.86,2.02-10.66h1.18l-.39,20.05c-3.14,3.08-6.94,5.52-11.4,7.32s-9.66,2.7-15.62,2.7-11.68-1.02-16.36-3.05c-4.68-2.03-8.58-4.7-11.69-8.01-3.11-3.31-5.45-7.09-7.03-11.35-1.57-4.26-2.36-8.58-2.36-12.97ZM541.18,854.49h25.74v1.28c-.79,0-1.67.12-2.65.34-.98.23-1.92.62-2.8,1.18-.88.56-1.62,1.31-2.21,2.26-.59.95-.88,2.15-.88,3.59v27.81h-1.18l-6.58-5.6-.88-1.18v-21.03c0-1.44-.3-2.64-.89-3.59-.59-.95-1.33-1.7-2.21-2.26-.88-.56-1.82-.95-2.8-1.18-.98-.23-1.87-.34-2.65-.34v-1.28Z"/>
      <path class="st0" d="M614.09,892.23c-6.22,0-11.66-1.02-16.31-3.05-4.65-2.03-8.53-4.7-11.64-8.01-3.11-3.31-5.45-7.09-7.03-11.35-1.57-4.26-2.36-8.58-2.36-12.97s.77-8.79,2.31-13.02c1.54-4.23,3.86-7.99,6.98-11.3,3.11-3.31,7.01-5.98,11.69-8.01,4.68-2.03,10.14-3.05,16.36-3.05s11.68,1.02,16.36,3.05c4.68,2.03,8.58,4.7,11.69,8.01,3.11,3.31,5.44,7.07,6.98,11.3,1.54,4.23,2.31,8.57,2.31,13.02s-.77,8.71-2.31,12.97c-1.54,4.26-3.87,8.04-6.98,11.35-3.11,3.31-7.01,5.98-11.69,8.01-4.68,2.03-10.14,3.05-16.36,3.05ZM611.05,824.03c-3.8,0-7.34.74-10.61,2.21-3.28,1.47-6.13,3.46-8.55,5.94-2.42,2.49-4.32,5.4-5.7,8.75-1.38,3.34-2.06,6.91-2.06,10.71,0,4.46.85,8.94,2.55,13.46,1.7,4.52,4.06,8.6,7.07,12.23,3.01,3.64,6.57,6.6,10.66,8.89,4.09,2.29,8.5,3.44,13.22,3.44,3.8,0,7.32-.72,10.56-2.16,3.24-1.44,6.06-3.41,8.45-5.9,2.39-2.49,4.26-5.41,5.6-8.75,1.34-3.34,2.01-6.91,2.01-10.71,0-4.52-.88-9.06-2.65-13.61-1.77-4.55-4.16-8.65-7.17-12.28-3.01-3.64-6.53-6.58-10.56-8.84-4.03-2.26-8.3-3.39-12.82-3.39Z"/>
      <path class="st0" d="M686.81,891.25v-1.28c.79,0,1.67-.11,2.65-.34.98-.23,1.92-.62,2.8-1.18.88-.56,1.62-1.31,2.21-2.26s.88-2.15.88-3.59v-50.51c0-1.44-.29-2.64-.88-3.59-.59-.95-1.33-1.7-2.21-2.26-.88-.56-1.82-.95-2.8-1.18-.98-.23-1.87-.34-2.65-.34v-1.28c1.97,0,4.18-.1,6.63-.29,2.46-.2,4.95-.43,7.47-.69,2.52-.26,4.93-.49,7.22-.69,2.29-.2,4.22-.29,5.8-.29,5.31,0,10.23.8,14.79,2.41,4.55,1.61,8.5,3.88,11.84,6.83,3.34,2.95,5.96,6.55,7.86,10.81,1.9,4.26,2.85,9.04,2.85,14.35,0,4.39-.79,8.71-2.36,12.97-1.57,4.26-3.92,8.04-7.03,11.35-3.11,3.31-6.99,5.98-11.64,8.01-4.65,2.03-10.09,3.05-16.31,3.05h-27.12ZM704,888.79h8.75c5.44,0,10.09-.79,13.95-2.36,3.87-1.57,7.04-3.67,9.53-6.29,2.49-2.62,4.31-5.63,5.45-9.04,1.15-3.41,1.72-6.94,1.72-10.61,0-4.45-.77-8.86-2.31-13.22-1.54-4.36-3.73-8.26-6.58-11.69-2.85-3.44-6.24-6.22-10.17-8.35-3.93-2.13-8.32-3.19-13.17-3.19-1.05,0-2.28.08-3.68.25-1.41.16-2.57.44-3.49.84v63.68Z"/>
      <path class="st0" d="M799.52,822.46v9.43h-1.28c-.26-1.57-.62-2.83-1.08-3.78-.46-.95-1.03-1.65-1.72-2.11-.69-.46-1.51-.75-2.46-.88-.95-.13-2.11-.2-3.49-.2h-19.06v29.38h10.42c1.51,0,3-.02,4.47-.05,1.47-.03,2.83-.23,4.08-.59,1.24-.36,2.24-.95,3-1.77.75-.82,1.13-2.01,1.13-3.59h1.18v14.44h-1.18c0-1.57-.38-2.78-1.13-3.64-.75-.85-1.75-1.44-3-1.77-1.24-.33-2.6-.51-4.08-.54-1.47-.03-2.97-.05-4.47-.05h-10.42v32.03h14.15c2.95,0,5.37-.08,7.27-.25,1.9-.16,3.44-.49,4.62-.98,1.18-.49,2.11-1.19,2.8-2.11.69-.92,1.33-2.13,1.92-3.64h1.18l-1.97,9.43h-47.17v-1.28c.79,0,1.67-.11,2.65-.34.98-.23,1.92-.62,2.8-1.18.88-.56,1.62-1.31,2.21-2.26.59-.95.88-2.15.88-3.59v-51.49c0-1.44-.29-2.64-.88-3.59-.59-.95-1.33-1.7-2.21-2.26-.88-.55-1.82-.95-2.8-1.18-.98-.23-1.87-.34-2.65-.34v-1.28h46.28Z"/>
      <path class="st0" d="M837.74,808.7h19.06l32.43,67.51,29.58-67.51h20.64v1.47c-.92,0-1.97.13-3.15.39-1.18.26-2.31.74-3.39,1.42-1.08.69-1.98,1.61-2.7,2.75-.72,1.15-1.08,2.6-1.08,4.37v61.51c0,1.7.36,3.13,1.08,4.27.72,1.15,1.62,2.06,2.7,2.75,1.08.69,2.21,1.18,3.39,1.47s2.23.44,3.15.44v1.47h-30.86v-1.47c.92,0,1.97-.15,3.14-.44,1.18-.29,2.31-.79,3.39-1.47,1.08-.69,1.98-1.61,2.7-2.75.72-1.15,1.08-2.57,1.08-4.27v-64.85l-33.51,76.65-34.49-72.03v55.72c0,2.95.36,5.31,1.08,7.07s1.61,3.13,2.65,4.08c1.05.95,2.16,1.57,3.34,1.87,1.18.29,2.23.44,3.14.44v1.47h-23.39v-1.47c.92,0,1.97-.15,3.15-.44s2.29-.92,3.34-1.87c1.05-.95,1.93-2.31,2.65-4.08.72-1.77,1.08-4.13,1.08-7.07v-56.99c0-1.77-.36-3.23-1.08-4.37-.72-1.15-1.61-2.06-2.65-2.75-1.05-.69-2.16-1.16-3.34-1.42-1.18-.26-2.23-.39-3.15-.39v-1.47Z"/>
      <path class="st0" d="M999.48,876.7c-3.01,0-5.7-.51-8.06-1.52-2.36-1.01-4.64-2.11-6.83-3.29-2.2-1.18-4.46-2.26-6.78-3.24-2.32-.98-5-1.47-8.01-1.47l-3.24,7.17c-1.64,3.8-2.62,6.75-2.95,8.84-.33,2.1-.28,3.65.15,4.67.42,1.02,1.06,1.62,1.92,1.82.85.2,1.67.29,2.46.29v1.28h-18.87l.1-1.28c.72,0,1.57-.11,2.55-.34.98-.23,2.1-.85,3.34-1.87,1.24-1.01,2.59-2.57,4.03-4.67,1.44-2.1,3.01-5.01,4.72-8.74l23.88-53.36,23.19,61.61c.52,1.44,1.24,2.65,2.16,3.64.92.98,1.88,1.74,2.9,2.26,1.01.52,2.01.9,3,1.13.98.23,1.87.34,2.65.34v1.28h-25.65v-1.28c.79,0,1.61-.11,2.46-.34.85-.23,1.61-.62,2.26-1.18.65-.56,1.08-1.31,1.28-2.26.2-.95.03-2.15-.49-3.59l-2.16-5.9ZM984.05,835.53l-13.07,29.09c2.69.07,5.11.59,7.27,1.57,2.16.98,4.29,2.05,6.39,3.19,2.1,1.15,4.26,2.21,6.48,3.19,2.23.98,4.72,1.54,7.47,1.67l-14.54-38.71Z"/>
      <path class="st0" d="M1042.52,878.77c0,2.42.31,4.37.93,5.85.62,1.47,1.37,2.6,2.26,3.39.88.79,1.82,1.31,2.8,1.57.98.26,1.83.39,2.55.39v1.28h-19.46v-1.28c.72,0,1.57-.13,2.55-.39.98-.26,1.92-.79,2.8-1.57.88-.79,1.64-1.92,2.26-3.39.62-1.47.93-3.42.93-5.85v-57.78h2.36l43.92,57.39v-43.43c0-2.42-.31-4.37-.93-5.85-.62-1.47-1.37-2.6-2.26-3.39-.88-.79-1.82-1.31-2.8-1.57-.98-.26-1.83-.39-2.55-.39v-1.28h19.46v1.28c-.72,0-1.57.13-2.56.39-.98.26-1.92.79-2.8,1.57s-1.64,1.92-2.26,3.39c-.62,1.47-.93,3.42-.93,5.85v57.78h-2.36l-43.92-57.29v43.33Z"/>
      <path class="st0" d="M1125.65,824.92c-2.95,0-5.36.08-7.22.25-1.87.16-3.39.49-4.57.98-1.18.49-2.13,1.2-2.85,2.11-.72.92-1.38,2.13-1.97,3.64h-1.18l1.97-9.43h42.65l-34.29,66.33h15.23c2.95,0,5.37-.08,7.27-.25,1.9-.16,3.44-.49,4.62-.98,1.18-.49,2.11-1.19,2.8-2.11.69-.92,1.33-2.13,1.92-3.64h1.18l-1.97,9.43h-42.06l34.29-66.33h-15.82Z"/>
      <path class="st0" d="M1212.51,876.7c-3.01,0-5.7-.51-8.06-1.52-2.36-1.01-4.64-2.11-6.83-3.29-2.19-1.18-4.45-2.26-6.78-3.24-2.33-.98-5-1.47-8.01-1.47l-3.24,7.17c-1.64,3.8-2.62,6.75-2.95,8.84-.33,2.1-.28,3.65.15,4.67.43,1.02,1.06,1.62,1.92,1.82.85.2,1.67.29,2.46.29v1.28h-18.87l.1-1.28c.72,0,1.57-.11,2.55-.34.98-.23,2.1-.85,3.34-1.87,1.24-1.01,2.59-2.57,4.03-4.67,1.44-2.1,3.01-5.01,4.72-8.74l23.88-53.36,23.19,61.61c.52,1.44,1.24,2.65,2.16,3.64.92.98,1.88,1.74,2.9,2.26,1.01.52,2.01.9,3,1.13.98.23,1.87.34,2.65.34v1.28h-25.65v-1.28c.79,0,1.6-.11,2.46-.34.85-.23,1.6-.62,2.26-1.18.65-.56,1.08-1.31,1.28-2.26.2-.95.03-2.15-.49-3.59l-2.16-5.9ZM1197.09,835.53l-13.07,29.09c2.68.07,5.11.59,7.27,1.57,2.16.98,4.29,2.05,6.39,3.19,2.1,1.15,4.26,2.21,6.48,3.19,2.23.98,4.72,1.54,7.47,1.67l-14.54-38.71Z"/>
      <path class="st0" d="M1255.55,878.77c0,2.42.31,4.37.93,5.85.62,1.47,1.38,2.6,2.26,3.39.89.79,1.82,1.31,2.8,1.57.98.26,1.83.39,2.55.39v1.28h-19.46v-1.28c.72,0,1.57-.13,2.55-.39.98-.26,1.92-.79,2.8-1.57.88-.79,1.64-1.92,2.26-3.39.62-1.47.93-3.42.93-5.85v-57.78h2.36l43.92,57.39v-43.43c0-2.42-.31-4.37-.93-5.85-.62-1.47-1.38-2.6-2.26-3.39-.89-.79-1.82-1.31-2.8-1.57-.98-.26-1.84-.39-2.56-.39v-1.28h19.46v1.28c-.72,0-1.57.13-2.55.39-.98.26-1.92.79-2.8,1.57-.88.79-1.64,1.92-2.26,3.39-.62,1.47-.93,3.42-.93,5.85v57.78h-2.36l-43.92-57.29v43.33Z"/>
      <path class="st0" d="M1362.56,876.7c-3.01,0-5.7-.51-8.06-1.52-2.36-1.01-4.64-2.11-6.83-3.29-2.2-1.18-4.46-2.26-6.78-3.24-2.32-.98-5-1.47-8.01-1.47l-3.24,7.17c-1.64,3.8-2.62,6.75-2.95,8.84-.33,2.1-.28,3.65.15,4.67.42,1.02,1.06,1.62,1.92,1.82.85.2,1.67.29,2.46.29v1.28h-18.87l.1-1.28c.72,0,1.57-.11,2.55-.34.98-.23,2.1-.85,3.34-1.87,1.24-1.01,2.59-2.57,4.03-4.67,1.44-2.1,3.01-5.01,4.72-8.74l23.88-53.36,23.19,61.61c.52,1.44,1.24,2.65,2.16,3.64.92.98,1.88,1.74,2.9,2.26,1.01.52,2.01.9,3,1.13.98.23,1.87.34,2.65.34v1.28h-25.65v-1.28c.79,0,1.61-.11,2.46-.34.85-.23,1.61-.62,2.26-1.18.65-.56,1.08-1.31,1.28-2.26.2-.95.03-2.15-.49-3.59l-2.16-5.9ZM1347.14,835.53l-13.07,29.09c2.69.07,5.11.59,7.27,1.57,2.16.98,4.29,2.05,6.39,3.19,2.1,1.15,4.26,2.21,6.48,3.19,2.23.98,4.72,1.54,7.47,1.67l-14.54-38.71Z"/>
      <path class="st0" d="M1432.43,858.72c3.08.52,5.49,1.67,7.22,3.44,1.74,1.77,3.11,3.8,4.13,6.09,1.01,2.29,1.78,4.72,2.31,7.27.52,2.55,1.06,4.9,1.62,7.03.56,2.13,1.26,3.9,2.11,5.31.85,1.41,2.1,2.11,3.74,2.11h1.47v1.28h-6.78c-2.55,0-4.52-.69-5.9-2.06-1.37-1.38-2.46-3.11-3.24-5.21-.79-2.1-1.44-4.4-1.97-6.93-.52-2.52-1.23-4.95-2.11-7.27-.88-2.32-2.15-4.41-3.78-6.24-1.64-1.83-3.93-3.08-6.88-3.73-.98-.2-1.98-.38-3-.54-1.02-.16-2.02-.36-3-.59-.98-.23-1.95-.57-2.9-1.03-.95-.46-1.85-1.11-2.7-1.97v-2.26c1.83,1.11,3.73,2,5.7,2.65,1.97.66,4,.98,6.09.98,3.8,0,6.99-.84,9.58-2.51,2.59-1.67,4.52-3.75,5.8-6.24,1.28-2.49,1.87-5.17,1.77-8.06-.1-2.88-.95-5.57-2.55-8.06-1.61-2.49-4-4.57-7.17-6.24-3.18-1.67-7.22-2.51-12.13-2.51-1.57,0-3.05.11-4.42.34-1.37.23-2.55.54-3.54.93v57.88c0,1.44.29,2.64.88,3.59.59.95,1.33,1.7,2.21,2.26.88.56,1.82.95,2.8,1.18.98.23,1.87.34,2.65.34v1.28h-25.74v-1.28c.79,0,1.67-.11,2.65-.34.98-.23,1.92-.62,2.8-1.18.88-.56,1.62-1.31,2.21-2.26.59-.95.88-2.15.88-3.59v-51.49c0-1.44-.29-2.64-.88-3.59-.59-.95-1.33-1.7-2.21-2.26-.88-.55-1.82-.95-2.8-1.18-.98-.23-1.87-.34-2.65-.34v-1.28c2.16,0,4.18-.06,6.04-.2,1.87-.13,3.7-.29,5.5-.49,1.8-.2,3.67-.36,5.6-.49,1.93-.13,4.08-.2,6.44-.2,6.16,0,11.45.75,15.87,2.26,4.42,1.51,7.94,3.46,10.56,5.85,2.62,2.39,4.36,5.04,5.21,7.96.85,2.92.77,5.77-.25,8.55-1.02,2.79-2.95,5.34-5.8,7.66-2.85,2.33-6.67,4.11-11.45,5.36Z"/>
      <path class="st0" d="M1511.14,822.46v9.43h-1.28c-.26-1.57-.62-2.83-1.08-3.78-.46-.95-1.03-1.65-1.72-2.11-.69-.46-1.51-.75-2.46-.88-.95-.13-2.11-.2-3.49-.2h-19.06v29.38h10.42c1.51,0,3-.02,4.47-.05,1.47-.03,2.83-.23,4.08-.59,1.24-.36,2.24-.95,3-1.77.75-.82,1.13-2.01,1.13-3.59h1.18v14.44h-1.18c0-1.57-.38-2.78-1.13-3.64-.75-.85-1.75-1.44-3-1.77-1.24-.33-2.6-.51-4.08-.54-1.47-.03-2.97-.05-4.47-.05h-10.42v32.03h14.15c2.95,0,5.37-.08,7.27-.25,1.9-.16,3.44-.49,4.62-.98s2.11-1.19,2.8-2.11c.69-.92,1.33-2.13,1.92-3.64h1.18l-1.97,9.43h-47.17v-1.28c.79,0,1.67-.11,2.65-.34.98-.23,1.92-.62,2.8-1.18.88-.56,1.62-1.31,2.21-2.26s.88-2.15.88-3.59v-51.49c0-1.44-.29-2.64-.88-3.59-.59-.95-1.33-1.7-2.21-2.26-.88-.55-1.82-.95-2.8-1.18-.98-.23-1.87-.34-2.65-.34v-1.28h46.28Z"/>
      <path class="st0" d="M1532.16,836.22c0,2.69.77,5.09,2.31,7.22,1.54,2.13,3.44,4.11,5.7,5.94,2.26,1.84,4.73,3.6,7.42,5.31,2.68,1.7,5.16,3.49,7.42,5.36,2.26,1.87,4.16,3.88,5.7,6.04,1.54,2.16,2.31,4.65,2.31,7.47s-.59,5.58-1.77,7.91c-1.18,2.33-2.74,4.27-4.67,5.85-1.93,1.57-4.14,2.78-6.63,3.64-2.49.85-5.08,1.28-7.76,1.28-3.28,0-6.45-.61-9.53-1.82-3.08-1.21-5.86-2.93-8.35-5.16l2.85-13.07h1.38v1.57c0,2.1.23,4.13.69,6.09.46,1.97,1.19,3.7,2.21,5.21,1.01,1.51,2.31,2.7,3.88,3.59,1.57.88,3.44,1.33,5.6,1.33,1.7,0,3.36-.31,4.96-.93,1.6-.62,3.04-1.52,4.32-2.7s2.31-2.59,3.1-4.23c.78-1.64,1.18-3.44,1.18-5.4,0-2.36-.75-4.45-2.26-6.29-1.51-1.83-3.41-3.6-5.7-5.31-2.29-1.7-4.75-3.42-7.37-5.16-2.62-1.73-5.08-3.62-7.37-5.65-2.29-2.03-4.19-4.32-5.7-6.88-1.51-2.55-2.26-5.54-2.26-8.94,0-2.1.44-4.16,1.33-6.19.88-2.03,2.16-3.85,3.83-5.45,1.67-1.6,3.77-2.9,6.29-3.88,2.52-.98,5.39-1.47,8.6-1.47,1.7,0,3.31.15,4.82.44,1.51.29,2.88.56,4.13.79,1.24.23,2.29.36,3.14.39.85.03,1.44-.18,1.77-.64h.79l1.67,13.27h-1.38c-1.31-3.54-2.98-6.39-5.01-8.55-2.03-2.16-4.82-3.24-8.35-3.24-1.64,0-3.26.25-4.86.74-1.61.49-3.03,1.25-4.27,2.26-1.25,1.02-2.25,2.29-3,3.83-.75,1.54-1.13,3.36-1.13,5.45Z"/>
    </g>
    <path class="st0" d="M471.79,866.09c-.44.82-1.29,1.69-2.56,2.6-1.26.91-2.86,1.36-4.78,1.36-1.54,0-2.98-.22-4.33-.66-1.35-.44-2.69-.95-4.04-1.52-1.35-.58-2.73-1.17-4.16-1.77-1.43-.6-3-1.07-4.7-1.4l-4.29,9.56c-1.65,3.79-2.64,6.74-2.97,8.86-.33,2.12-.29,3.67.12,4.66.41.99,1.06,1.59,1.94,1.81.88.22,1.7.33,2.47.33l-.08,1.24h-18.79l.08-1.24c.77,0,1.63-.11,2.59-.33.96-.22,2.06-.84,3.3-1.85,1.24-1.02,2.58-2.57,4.04-4.66,1.46-2.09,3.01-5.03,4.66-8.82l4.45-9.89h-1.48c-1.04,0-2.14.11-3.3.33-1.15.22-2.25.58-3.3,1.07-1.04.49-1.99,1.14-2.84,1.94-.85.8-1.52,1.77-2.02,2.92l-.08-.08c.44-1.43,1.08-2.73,1.94-3.91.85-1.18,1.85-2.21,3.01-3.09,1.15-.88,2.42-1.55,3.79-2.02,1.37-.47,2.77-.7,4.2-.7h.82c.27,0,.55.03.82.08l17.88-39.89,20.11,53.56c.93,2.47,1.77,4.66,2.51,6.55.74,1.9,1.52,3.5,2.35,4.82.82,1.32,1.73,2.31,2.72,2.97.99.66,2.2.99,3.63.99v1.24h-23.07v-1.24c1.65,0,2.9-.31,3.75-.95.85-.63,1.34-1.59,1.48-2.88.14-1.29-.06-2.91-.58-4.86-.52-1.95-1.28-4.24-2.27-6.88l-3.05-8.24ZM460.34,835.6l-11.54,25.71c1.7.44,3.34,1.06,4.9,1.85,1.57.8,3.06,1.58,4.49,2.35,1.43.77,2.8,1.44,4.12,2.02,1.32.58,2.58.87,3.79.87,1.1,0,2.17-.21,3.21-.62,1.04-.41,1.84-1.06,2.39-1.94l-11.37-30.24Z"/>
  </g>
</svg>